<svg version="1.1" id="Layer_1" xmlns="http://www.w3.org/2000/svg" xmlns:xlink="http://www.w3.org/1999/xlink" x="0px" y="0px"
	 width="100%" viewBox="0 0 192 192" enable-background="new 0 0 192 192" xml:space="preserve">
<path fill="#FDFDFD" opacity="1.000000" stroke="none" 
	d="
M129.000000,193.000000 
	C86.027679,193.000000 43.555367,193.000000 1.041524,193.000000 
	C1.041524,129.069397 1.041524,65.138748 1.041524,1.104055 
	C64.888794,1.104055 128.777802,1.104055 192.833405,1.104055 
	C192.833405,64.999641 192.833405,128.999786 192.833405,193.000000 
	C171.805710,193.000000 150.652847,193.000000 129.000000,193.000000 
M87.741661,87.863632 
	C96.237747,80.745674 104.733826,73.627724 113.492592,66.289703 
	C110.573723,63.527546 108.009796,61.101273 104.907402,58.165443 
	C116.041496,57.094070 126.204475,56.116146 137.733795,55.006744 
	C124.749985,47.123642 112.936195,40.083237 101.285690,32.782272 
	C98.450554,31.005590 96.390762,31.224756 93.682777,32.917942 
	C79.306358,41.906906 64.860176,50.786530 50.340755,59.542511 
	C47.682766,61.145420 46.909042,63.035011 46.927376,66.011253 
	C47.044220,84.977272 46.963085,103.944458 47.019501,122.911041 
	C47.023560,124.275368 47.602013,125.637985 48.624588,127.077759 
	C61.456486,114.090866 74.288383,101.103973 87.741661,87.863632 
M97.272232,96.952599 
	C82.959587,108.242386 68.646935,119.532166 53.869335,131.188690 
	C60.209347,135.175507 65.876007,138.854111 71.655342,142.346222 
	C80.400383,147.630356 89.223885,152.784637 98.722878,158.012497 
	C114.075287,148.382904 129.386993,138.687195 144.821426,129.190918 
	C147.300705,127.665520 148.096954,126.015755 148.072586,123.204498 
	C147.941330,108.056641 148.006836,92.907089 148.004852,77.758118 
	C148.004196,72.667473 148.004745,67.576820 148.004745,62.386692 
	C133.733490,66.185089 134.420700,79.979973 128.864594,90.219154 
	C126.504601,85.803108 124.514549,82.079300 122.250023,77.841896 
	C113.884636,84.345169 105.912308,90.542885 97.272232,96.952599 
z"/>
<path fill="#034577" opacity="1.000000" stroke="none" 
	d="
M97.939972,96.740601 
	C105.912308,90.542885 113.884636,84.345169 122.250023,77.841896 
	C124.514549,82.079300 126.504601,85.803108 128.864594,90.219154 
	C134.420700,79.979973 133.733490,66.185089 148.004745,62.386692 
	C148.004745,67.576820 148.004196,72.667473 148.004852,77.758118 
	C148.006836,92.907089 147.941330,108.056641 148.072586,123.204498 
	C148.096954,126.015755 147.300705,127.665520 144.821426,129.190918 
	C129.386993,138.687195 114.075287,148.382904 98.353317,157.535370 
	C97.969162,136.952362 97.954567,116.846474 97.939972,96.740601 
z"/>
<path fill="#1DB98C" opacity="1.000000" stroke="none" 
	d="
M47.913399,127.001396 
	C47.602013,125.637985 47.023560,124.275368 47.019501,122.911041 
	C46.963085,103.944458 47.044220,84.977272 46.927376,66.011253 
	C46.909042,63.035011 47.682766,61.145420 50.340755,59.542511 
	C64.860176,50.786530 79.306358,41.906906 93.682777,32.917942 
	C96.390762,31.224756 98.450554,31.005590 101.285690,32.782272 
	C112.936195,40.083237 124.749985,47.123642 137.733795,55.006744 
	C126.204475,56.116146 116.041496,57.094070 104.907402,58.165443 
	C108.009796,61.101273 110.573723,63.527546 113.492592,66.289703 
	C104.733826,73.627724 96.237747,80.745674 87.357941,87.644501 
	C80.113388,82.856964 73.310776,78.197815 66.373711,73.748276 
	C60.608513,70.050400 54.685204,66.599030 47.913399,62.479717 
	C47.913399,84.799118 47.913399,105.900253 47.913399,127.001396 
z"/>
<path fill="#042B50" opacity="1.000000" stroke="none" 
	d="
M97.606102,96.846596 
	C97.954567,116.846474 97.969162,136.952362 97.998901,157.526169 
	C89.223885,152.784637 80.400383,147.630356 71.655342,142.346222 
	C65.876007,138.854111 60.209347,135.175507 53.869335,131.188690 
	C68.646935,119.532166 82.959587,108.242386 97.606102,96.846596 
z"/>
<path fill="#03937D" opacity="1.000000" stroke="none" 
	d="
M48.268993,127.039581 
	C47.913399,105.900253 47.913399,84.799118 47.913399,62.479717 
	C54.685204,66.599030 60.608513,70.050400 66.373711,73.748276 
	C73.310776,78.197815 80.113388,82.856964 87.047249,87.771225 
	C74.288383,101.103973 61.456486,114.090866 48.268993,127.039581 
z"/>
</svg>